<svg width="16" height="16" viewBox="0 0 16 16" fill="none" xmlns="http://www.w3.org/2000/svg">
<rect width="16" height="16" rx="6" fill="#6C5DD3"/>
<path d="M8.29133 3.79413L7.42523 5.81022H6.55914C6.41539 5.81022 6.27523 5.821 6.13867 5.84975L6.49805 4.98725L6.51242 4.95491L6.53398 4.89741C6.54477 4.87225 6.55195 4.85069 6.56273 4.83272C6.97961 3.866 7.4468 3.56413 8.29133 3.79413Z" fill="white"/>
<path d="M10.7309 5.90736L10.7238 5.90376C10.5081 5.84267 10.2889 5.81033 10.0661 5.81033H7.81641L8.625 3.9308L8.63578 3.90564C8.68609 3.92361 8.74 3.94876 8.79391 3.96673L9.58813 4.30095C10.0302 4.48423 10.3392 4.6747 10.5297 4.9047C10.562 4.94783 10.5908 4.98736 10.6195 5.03408C10.6519 5.08439 10.677 5.1347 10.6914 5.18861C10.7058 5.22095 10.7166 5.2497 10.7238 5.28205C10.7777 5.46533 10.7813 5.67376 10.7309 5.90736Z" fill="white"/>
<path d="M10.5727 6.42124C10.4109 6.37452 10.242 6.34937 10.0659 6.34937H6.55844C6.31406 6.34937 6.08406 6.39608 5.86844 6.48952C5.24312 6.75905 4.80469 7.38077 4.80469 8.10312V8.8039C4.80469 8.89015 4.81187 8.9728 4.82266 9.05905C4.90172 10.2019 5.51266 10.8128 6.65547 10.8883C6.73812 10.8991 6.82078 10.9062 6.91062 10.9062H9.71375C11.0434 10.9062 11.7442 10.2737 11.8125 9.01593C11.8161 8.94765 11.8197 8.87577 11.8197 8.8039V8.10312C11.8197 7.3089 11.2914 6.64046 10.5727 6.42124ZM9.21062 8.81827H8.58172V9.46874C8.58172 9.61608 8.45953 9.73827 8.31219 9.73827C8.16484 9.73827 8.04266 9.61608 8.04266 9.46874V8.81827H7.41375C7.26641 8.81827 7.14422 8.69968 7.14422 8.54874C7.14422 8.4014 7.26641 8.27921 7.41375 8.27921H8.04266V7.67187C8.04266 7.52452 8.16484 7.40233 8.31219 7.40233C8.45953 7.40233 8.58172 7.52452 8.58172 7.67187V8.27921H9.21062C9.35797 8.27921 9.48016 8.4014 9.48016 8.54874C9.48016 8.69968 9.35797 8.81827 9.21062 8.81827Z" fill="white"/>
</svg>
