<svg width="14" height="10" viewBox="0 0 14 10" fill="none" xmlns="http://www.w3.org/2000/svg">
<path fill-rule="evenodd" clip-rule="evenodd" d="M9.98047 0.926208C11.1943 1.20787 11.6586 1.91763 12.2407 2.89453H9.98047V0.926208ZM2.8869 2.97656C3.12456 2.97656 3.29706 3.09128 3.29706 3.35938C3.29706 3.58549 3.11409 3.76889 2.88808 3.76953H0.410156C0.183609 3.76953 0 3.95325 0 4.17969C0 4.40623 0.183609 4.58984 0.410156 4.58984H4.10156C4.33025 4.58984 4.51332 4.77335 4.51332 5C4.51332 5.22655 4.32971 5.41016 4.10316 5.41016H0.410156C0.183609 5.41016 0 5.59377 0 5.82031C0 6.04686 0.183609 6.23047 0.410156 6.23047H1.3125V7.46094C1.3125 7.68748 1.49611 7.87109 1.72266 7.87109H2.54713C2.69411 8.59506 3.3338 9.12891 4.08789 9.12891C4.84198 9.12891 5.48167 8.59506 5.62865 7.87109H9.79323C9.9402 8.59506 10.5799 9.12891 11.334 9.12891C12.0881 9.12891 12.7278 8.59506 12.8747 7.87109H13.5898C13.8164 7.87109 14 7.68748 14 7.46094V5C14 3.79655 12.7307 3.71666 12.7295 3.71484H9.57031C9.34377 3.71484 9.16016 3.53123 9.16016 3.30469V0.84375H1.72266C1.49611 0.84375 1.3125 1.02736 1.3125 1.25391V2.15625H0.820312C0.593765 2.15625 0.410156 2.33986 0.410156 2.56641C0.410156 2.79295 0.593765 2.97656 0.820312 2.97656H2.8869ZM11.8657 7.02493C12.1593 7.31856 12.1593 7.79483 11.8657 8.08846C11.3934 8.56078 10.582 8.22475 10.582 7.55664C10.582 6.88864 11.3934 6.55261 11.8657 7.02493V7.02493ZM4.6196 7.02493C4.91322 7.31856 4.91322 7.79483 4.6196 8.08846C4.14728 8.56078 3.33594 8.22475 3.33594 7.55664C3.33594 6.88864 4.14728 6.55261 4.6196 7.02493V7.02493Z" fill="#0BAFFF"/>
</svg>
