<svg width="15" height="15" viewBox="0 0 15 15" fill="none" xmlns="http://www.w3.org/2000/svg">
<path d="M7.4644 1.6725L6.02988 5.01178H4.59535C4.35726 5.01178 4.12512 5.02964 3.89893 5.07726L4.49416 3.64869L4.51797 3.59512L4.55369 3.49988C4.57155 3.45821 4.58345 3.4225 4.60131 3.39274C5.29178 1.79155 6.06559 1.29155 7.4644 1.6725Z" fill="#0BAFFF"/>
<path d="M11.5056 5.17259L11.4937 5.16664C11.1366 5.06545 10.7735 5.01188 10.4044 5.01188H6.67822L8.01751 1.89878L8.03537 1.85712C8.1187 1.88688 8.20798 1.92855 8.29727 1.95831L9.61275 2.51188C10.3449 2.81545 10.8568 3.13093 11.1723 3.51188C11.2258 3.58331 11.2735 3.64878 11.3211 3.72616C11.3747 3.8095 11.4163 3.89283 11.4401 3.98212C11.4639 4.03569 11.4818 4.08331 11.4937 4.13688C11.583 4.44045 11.5889 4.78569 11.5056 5.17259Z" fill="#0BAFFF"/>
<path d="M11.244 6.02365C10.9761 5.94627 10.6964 5.9046 10.4047 5.9046H4.59519C4.19043 5.9046 3.80948 5.98198 3.45233 6.13675C2.41662 6.58317 1.69043 7.61294 1.69043 8.80936V9.97008C1.69043 10.1129 1.70233 10.2498 1.72019 10.3927C1.85114 12.2856 2.86305 13.2975 4.75591 13.4225C4.89281 13.4403 5.02972 13.4522 5.17852 13.4522H9.82138C12.0238 13.4522 13.1845 12.4046 13.2976 10.3213C13.3035 10.2082 13.3095 10.0891 13.3095 9.97008V8.80936C13.3095 7.49389 12.4345 6.38675 11.244 6.02365ZM8.98805 9.99389H7.94638V11.0713C7.94638 11.3153 7.744 11.5177 7.49995 11.5177C7.25591 11.5177 7.05352 11.3153 7.05352 11.0713V9.99389H6.01186C5.76781 9.99389 5.56543 9.79746 5.56543 9.54746C5.56543 9.30341 5.76781 9.10103 6.01186 9.10103H7.05352V8.09508C7.05352 7.85103 7.25591 7.64865 7.49995 7.64865C7.744 7.64865 7.94638 7.85103 7.94638 8.09508V9.10103H8.98805C9.2321 9.10103 9.43448 9.30341 9.43448 9.54746C9.43448 9.79746 9.2321 9.99389 8.98805 9.99389Z" fill="#0BAFFF"/>
</svg>
