<svg width="16" height="16" viewBox="0 0 16 16" fill="none" xmlns="http://www.w3.org/2000/svg">
<circle cx="8" cy="8" r="8" fill="#F5B900"/>
<mask id="mask0" style="mask-type:alpha" maskUnits="userSpaceOnUse" x="3" y="3" width="10" height="8">
<path fill-rule="evenodd" clip-rule="evenodd" d="M3.83301 3.25H12.1721V10.8273H3.83301V3.25Z" fill="white"/>
</mask>
<g mask="url(#mask0)">
<path fill-rule="evenodd" clip-rule="evenodd" d="M8.00544 3.875C7.80711 3.875 7.63044 3.9775 7.53128 4.14958L4.53211 9.385C4.43461 9.55583 4.43544 9.75958 4.53419 9.93C4.63294 10.1004 4.80961 10.2025 5.00669 10.2025H10.9996C11.1963 10.2025 11.3729 10.1004 11.4717 9.93C11.5709 9.75958 11.5717 9.55583 11.4734 9.385L8.47961 4.14958C8.38086 3.9775 8.20419 3.875 8.00544 3.875ZM10.9993 10.8275H5.00635C4.58385 10.8275 4.2051 10.6092 3.99301 10.2433C3.78093 9.87792 3.77968 9.44083 3.98926 9.07458L6.98926 3.83875C7.2001 3.47 7.57968 3.25 8.0051 3.25H8.00551C8.43051 3.25 8.81093 3.47042 9.02176 3.83958L12.0159 9.07458C12.2255 9.44083 12.2243 9.87792 12.0122 10.2433C11.8001 10.6092 11.4213 10.8275 10.9993 10.8275Z" fill="white"/>
</g>
<path fill-rule="evenodd" clip-rule="evenodd" d="M8.00195 7.90165C7.82945 7.90165 7.68945 7.76165 7.68945 7.58915V6.29749C7.68945 6.12499 7.82945 5.98499 8.00195 5.98499C8.17445 5.98499 8.31445 6.12499 8.31445 6.29749V7.58915C8.31445 7.76165 8.17445 7.90165 8.00195 7.90165Z" fill="white"/>
<path fill-rule="evenodd" clip-rule="evenodd" d="M8.00273 9.29122C7.77232 9.29122 7.58398 9.10497 7.58398 8.87455C7.58398 8.64414 7.76857 8.45789 7.99857 8.45789H8.00273C8.23315 8.45789 8.4194 8.64414 8.4194 8.87455C8.4194 9.10497 8.23315 9.29122 8.00273 9.29122Z" fill="white"/>
</svg>
