<svg width="16" height="16" viewBox="0 0 16 16" fill="none" xmlns="http://www.w3.org/2000/svg">
<rect width="16" height="16" rx="6" fill="#FF9A7B"/>
<path d="M9.74551 3.83337H6.25384C4.73717 3.83337 3.83301 4.73754 3.83301 6.25421V9.74171C3.83301 11.2625 4.73717 12.1667 6.25384 12.1667H9.74134C11.258 12.1667 12.1622 11.2625 12.1622 9.74587V6.25421C12.1663 4.73754 11.2622 3.83337 9.74551 3.83337ZM7.59551 10.3584C7.71634 10.4792 7.71634 10.6792 7.59551 10.8C7.53301 10.8625 7.45384 10.8917 7.37467 10.8917C7.29551 10.8917 7.21634 10.8625 7.15384 10.8L6.43717 10.0834L5.72051 10.8C5.65801 10.8584 5.57884 10.8917 5.49967 10.8917C5.42051 10.8917 5.34134 10.8625 5.27884 10.8C5.15801 10.6792 5.15801 10.4792 5.27884 10.3584L5.99551 9.64171L5.27884 8.92504C5.15801 8.80421 5.15801 8.60421 5.27884 8.48337C5.39967 8.36254 5.59967 8.36254 5.72051 8.48337L6.43717 9.20004L7.15384 8.48337C7.27467 8.36254 7.47467 8.36254 7.59551 8.48337C7.71634 8.60421 7.71634 8.80421 7.59551 8.92504L6.87884 9.64171L7.59551 10.3584ZM7.37467 6.67087H5.49967C5.32884 6.67087 5.18717 6.52921 5.18717 6.35837C5.18717 6.18754 5.32884 6.04587 5.49967 6.04587H7.37467C7.54551 6.04587 7.68717 6.18754 7.68717 6.35837C7.68717 6.52921 7.54551 6.67087 7.37467 6.67087ZM10.4997 10.7334H8.62467C8.45384 10.7334 8.31217 10.5917 8.31217 10.4209C8.31217 10.25 8.45384 10.1084 8.62467 10.1084H10.4997C10.6705 10.1084 10.8122 10.25 10.8122 10.4209C10.8122 10.5917 10.6705 10.7334 10.4997 10.7334ZM10.4997 9.17087H8.62467C8.45384 9.17087 8.31217 9.02921 8.31217 8.85837C8.31217 8.68754 8.45384 8.54587 8.62467 8.54587H10.4997C10.6705 8.54587 10.8122 8.68754 10.8122 8.85837C10.8122 9.02921 10.6705 9.17087 10.4997 9.17087ZM10.4997 6.67087H9.88301V7.29587C9.88301 7.46671 9.74134 7.60837 9.57051 7.60837C9.39967 7.60837 9.25801 7.46671 9.25801 7.29587V6.67087H8.62467C8.45384 6.67087 8.31217 6.52921 8.31217 6.35837C8.31217 6.18754 8.45384 6.04587 8.62467 6.04587H9.25801V5.42087C9.25801 5.25004 9.39967 5.10837 9.57051 5.10837C9.74134 5.10837 9.88301 5.25004 9.88301 5.42087V6.04587H10.4997C10.6705 6.04587 10.8122 6.18754 10.8122 6.35837C10.8122 6.52921 10.6705 6.67087 10.4997 6.67087Z" fill="white"/>
</svg>
