<svg width="64" height="64" viewBox="0 0 64 64" fill="none" xmlns="http://www.w3.org/2000/svg">
<rect width="64" height="64" rx="32" fill="#0BAFFF"/>
<path d="M40.7152 22.235V23.345L35.4052 20.27C33.3952 19.115 30.5902 19.115 28.5952 20.27L23.2852 23.36V22.235C23.2852 18.86 25.1302 17 28.5052 17H35.4952C38.8702 17 40.7152 18.86 40.7152 22.235Z" fill="white"/>
<path d="M40.76 25.955L40.55 25.85L38.51 24.68L34.28 22.235C32.99 21.485 31.01 21.485 29.72 22.235L25.49 24.665L23.45 25.865L23.18 26C20.555 27.77 20.375 28.1 20.375 30.935V37.715C20.375 40.55 20.555 40.88 23.24 42.695L29.72 46.43C30.365 46.82 31.175 46.985 32 46.985C32.81 46.985 33.635 46.805 34.28 46.43L40.82 42.65C43.46 40.88 43.625 40.565 43.625 37.715V30.935C43.625 28.1 43.445 27.77 40.76 25.955ZM36.185 34.25L35.27 35.375C35.12 35.54 35.015 35.855 35.03 36.08L35.12 37.52C35.18 38.405 34.55 38.855 33.725 38.54L32.39 38C32.18 37.925 31.835 37.925 31.625 38L30.29 38.525C29.465 38.855 28.835 38.39 28.895 37.505L28.985 36.065C29 35.84 28.895 35.525 28.745 35.36L27.815 34.25C27.245 33.575 27.5 32.825 28.355 32.6L29.75 32.24C29.975 32.18 30.23 31.97 30.35 31.79L31.13 30.59C31.61 29.84 32.375 29.84 32.87 30.59L33.65 31.79C33.77 31.985 34.04 32.18 34.25 32.24L35.645 32.6C36.5 32.825 36.755 33.575 36.185 34.25Z" fill="white"/>
</svg>
