<svg width="14" height="14" viewBox="0 0 14 14" fill="none" xmlns="http://www.w3.org/2000/svg">
<path fill-rule="evenodd" clip-rule="evenodd" d="M3.49984 4.08331C3.17767 4.08331 2.9165 4.34448 2.9165 4.66665V10.5C2.9165 11.4665 3.70001 12.25 4.6665 12.25H9.33317C10.2997 12.25 11.0832 11.4665 11.0832 10.5V4.66665C11.0832 4.34448 10.822 4.08331 10.4998 4.08331H3.49984ZM5.42069 9.74579L6.58736 10.9125C6.81516 11.1403 7.18451 11.1403 7.41232 10.9125L8.57898 9.74579C8.80679 9.51799 8.80679 9.14864 8.57898 8.92083C8.35118 8.69303 7.98183 8.69303 7.75403 8.92083L7.58317 9.09169V5.83331C7.58317 5.51115 7.322 5.24998 6.99984 5.24998C6.67767 5.24998 6.4165 5.51115 6.4165 5.83331V9.09169L6.24565 8.92083C6.01784 8.69303 5.6485 8.69303 5.42069 8.92083C5.19289 9.14864 5.19289 9.51799 5.42069 9.74579Z" fill="#FF5E2F"/>
<path d="M1.75 2.33333C1.75 2.01117 2.01117 1.75 2.33333 1.75H11.6667C11.9888 1.75 12.25 2.01117 12.25 2.33333V2.33333C12.25 2.6555 11.9888 2.91667 11.6667 2.91667H2.33333C2.01117 2.91667 1.75 2.6555 1.75 2.33333V2.33333Z" fill="#FF5E2F"/>
</svg>
