<svg width="14" height="14" viewBox="0 0 14 14" fill="none" xmlns="http://www.w3.org/2000/svg">
<path d="M11.6492 1.02081H9.93417C9.19333 1.02081 8.75 1.46415 8.75 2.20498V3.91998C8.75 4.66081 9.19333 5.10415 9.93417 5.10415H11.6492C12.39 5.10415 12.8333 4.66081 12.8333 3.91998V2.20498C12.8333 1.46415 12.39 1.02081 11.6492 1.02081ZM11.7775 2.95165C11.7075 3.02165 11.6142 3.05665 11.5208 3.05665C11.4275 3.05665 11.3342 3.02165 11.2642 2.95165L11.1592 2.84665V4.15331C11.1592 4.35748 10.9958 4.52081 10.7917 4.52081C10.5875 4.52081 10.4242 4.35748 10.4242 4.15331V2.84665L10.3192 2.95165C10.1792 3.09165 9.94583 3.09165 9.80583 2.95165C9.66583 2.81165 9.66583 2.57831 9.80583 2.43831L10.535 1.70915C10.5642 1.67998 10.605 1.65665 10.6458 1.63915C10.6575 1.63331 10.6692 1.63331 10.6808 1.62748C10.71 1.61581 10.7392 1.60998 10.7742 1.60998C10.7858 1.60998 10.7975 1.60998 10.8092 1.60998C10.85 1.60998 10.885 1.61581 10.9258 1.63331C10.9317 1.63331 10.9317 1.63331 10.9375 1.63331C10.9783 1.65081 11.0133 1.67415 11.0425 1.70331C11.0483 1.70915 11.0483 1.70915 11.0542 1.70915L11.7833 2.43831C11.9233 2.57831 11.9233 2.81165 11.7775 2.95165Z" fill="#F79E1B"/>
<path d="M1.1665 6.68502V9.60169C1.1665 10.9375 2.24567 12.0167 3.5815 12.0167H10.4123C11.7482 12.0167 12.8332 10.9317 12.8332 9.59585V6.68502C12.8332 6.29419 12.5182 5.97919 12.1273 5.97919H1.87234C1.4815 5.97919 1.1665 6.29419 1.1665 6.68502ZM4.6665 10.0625H3.49984C3.26067 10.0625 3.06234 9.86419 3.06234 9.62502C3.06234 9.38585 3.26067 9.18752 3.49984 9.18752H4.6665C4.90567 9.18752 5.104 9.38585 5.104 9.62502C5.104 9.86419 4.90567 10.0625 4.6665 10.0625ZM8.45817 10.0625H6.12484C5.88567 10.0625 5.68734 9.86419 5.68734 9.62502C5.68734 9.38585 5.88567 9.18752 6.12484 9.18752H8.45817C8.69734 9.18752 8.89567 9.38585 8.89567 9.62502C8.89567 9.86419 8.69734 10.0625 8.45817 10.0625Z" fill="#F79E1B"/>
<path d="M7.87484 2.68911V4.39828C7.87484 4.78911 7.55984 5.10411 7.169 5.10411H1.87234C1.47567 5.10411 1.1665 4.77744 1.1665 4.38661C1.17234 3.72744 1.43484 3.12661 1.87234 2.68911C2.30984 2.25161 2.9165 1.98328 3.5815 1.98328H7.169C7.55984 1.98328 7.87484 2.29828 7.87484 2.68911Z" fill="#F79E1B"/>
</svg>
