<svg width="16" height="16" viewBox="0 0 16 16" fill="none" xmlns="http://www.w3.org/2000/svg">
<path d="M8.00016 1.33331C4.32016 1.33331 1.3335 4.31998 1.3335 7.99998C1.3335 11.68 4.32016 14.6666 8.00016 14.6666C11.6802 14.6666 14.6668 11.68 14.6668 7.99998C14.6668 4.31998 11.6802 1.33331 8.00016 1.33331ZM6.00016 5.33331C6.36683 5.33331 6.66683 5.63331 6.66683 5.99998C6.66683 6.36665 6.3735 6.66665 6.00016 6.66665C5.6335 6.66665 5.3335 6.36665 5.3335 5.99998C5.3335 5.63331 5.6335 5.33331 6.00016 5.33331ZM6.3535 10.3533C6.2535 10.4533 6.12683 10.5 6.00016 10.5C5.8735 10.5 5.74683 10.4533 5.64683 10.3533C5.4535 10.16 5.4535 9.83998 5.64683 9.64665L9.64683 5.64665C9.84016 5.45331 10.1602 5.45331 10.3535 5.64665C10.5468 5.83998 10.5468 6.15998 10.3535 6.35331L6.3535 10.3533ZM10.0002 10.6666C9.62683 10.6666 9.32683 10.3666 9.32683 9.99998C9.32683 9.63331 9.62683 9.33331 9.99349 9.33331C10.3602 9.33331 10.6602 9.63331 10.6602 9.99998C10.6602 10.3666 10.3668 10.6666 10.0002 10.6666Z" fill="#FEAD36"/>
</svg>
