<svg width="14" height="14" viewBox="0 0 14 14" fill="none" xmlns="http://www.w3.org/2000/svg">
<path d="M7.4375 9.28658H7.81667C8.19583 9.28658 8.51083 8.94825 8.51083 8.53992C8.51083 8.03242 8.33 7.93325 8.0325 7.82825L7.44333 7.62408V9.28658H7.4375Z" fill="#4FBF67"/>
<path d="M6.98238 1.10829C3.76238 1.11995 1.15488 3.73912 1.16654 6.95912C1.17821 10.1791 3.79738 12.7866 7.01738 12.775C10.2374 12.7633 12.8449 10.1441 12.8332 6.92412C12.8215 3.70412 10.2024 1.10245 6.98238 1.10829ZM8.31821 6.99995C8.77321 7.15745 9.38571 7.49579 9.38571 8.53995C9.38571 9.43829 8.67988 10.1616 7.81654 10.1616H7.43738V10.5C7.43738 10.7391 7.23904 10.9375 6.99988 10.9375C6.76071 10.9375 6.56238 10.7391 6.56238 10.5V10.1616H6.35238C5.39571 10.1616 4.61988 9.35662 4.61988 8.36495C4.61988 8.12579 4.81821 7.92745 5.05738 7.92745C5.29654 7.92745 5.49488 8.12579 5.49488 8.36495C5.49488 8.87245 5.87988 9.28662 6.35238 9.28662H6.56238V7.31495L5.68154 6.99995C5.22654 6.84245 4.61404 6.50412 4.61404 5.45995C4.61404 4.56162 5.31988 3.83829 6.18321 3.83829H6.56238V3.49995C6.56238 3.26079 6.76071 3.06245 6.99988 3.06245C7.23904 3.06245 7.43738 3.26079 7.43738 3.49995V3.83829H7.64738C8.60404 3.83829 9.37988 4.64329 9.37988 5.63495C9.37988 5.87412 9.18154 6.07245 8.94238 6.07245C8.70321 6.07245 8.50488 5.87412 8.50488 5.63495C8.50488 5.12745 8.11988 4.71329 7.64738 4.71329H7.43738V6.68495L8.31821 6.99995Z" fill="#4FBF67"/>
<path d="M5.49512 5.46588C5.49512 5.97338 5.67595 6.07255 5.97345 6.17755L6.56262 6.38171V4.71338H6.18345C5.80428 4.71338 5.49512 5.05171 5.49512 5.46588Z" fill="#4FBF67"/>
</svg>
