<svg width="16" height="16" viewBox="0 0 16 16" fill="none" xmlns="http://www.w3.org/2000/svg">
<path d="M8.5 10.6133H8.93333C9.36667 10.6133 9.72667 10.2267 9.72667 9.75998C9.72667 9.17998 9.52 9.06665 9.18 8.94665L8.50667 8.71332V10.6133H8.5Z" fill="#FF5E2F"/>
<path d="M7.97972 1.26667C4.29972 1.28001 1.31972 4.27334 1.33305 7.95334C1.34639 11.6333 4.33972 14.6133 8.01972 14.6C11.6997 14.5867 14.6797 11.5933 14.6664 7.91334C14.6531 4.23334 11.6597 1.26001 7.97972 1.26667ZM9.50639 8.00001C10.0264 8.18001 10.7264 8.56667 10.7264 9.76001C10.7264 10.7867 9.91972 11.6133 8.93305 11.6133H8.49972V12C8.49972 12.2733 8.27305 12.5 7.99972 12.5C7.72639 12.5 7.49972 12.2733 7.49972 12V11.6133H7.25972C6.16639 11.6133 5.27972 10.6933 5.27972 9.56001C5.27972 9.28667 5.50639 9.06001 5.77972 9.06001C6.05305 9.06001 6.27972 9.28667 6.27972 9.56001C6.27972 10.14 6.71972 10.6133 7.25972 10.6133H7.49972V8.36001L6.49305 8.00001C5.97305 7.82001 5.27305 7.43334 5.27305 6.24001C5.27305 5.21334 6.07972 4.38667 7.06639 4.38667H7.49972V4.00001C7.49972 3.72667 7.72639 3.50001 7.99972 3.50001C8.27305 3.50001 8.49972 3.72667 8.49972 4.00001V4.38667H8.73972C9.83305 4.38667 10.7197 5.30667 10.7197 6.44001C10.7197 6.71334 10.4931 6.94001 10.2197 6.94001C9.94639 6.94001 9.71972 6.71334 9.71972 6.44001C9.71972 5.86001 9.27972 5.38667 8.73972 5.38667H8.49972V7.64001L9.50639 8.00001Z" fill="#FF5E2F"/>
<path d="M6.28027 6.24666C6.28027 6.82666 6.48694 6.93999 6.82694 7.05999L7.50027 7.29332V5.38666H7.06694C6.63361 5.38666 6.28027 5.77332 6.28027 6.24666Z" fill="#FF5E2F"/>
</svg>
