<svg width="11" height="11" viewBox="0 0 11 11" fill="none" xmlns="http://www.w3.org/2000/svg">
<path d="M9.08929 3.18752L6.51786 1.38841C5.81696 0.897342 4.74107 0.924127 4.06696 1.44645L1.83036 3.19198C1.38393 3.5402 1.03125 4.25448 1.03125 4.81698V7.89734C1.03125 9.03573 1.95536 9.9643 3.09375 9.9643H7.90625C9.04464 9.9643 9.96875 9.0402 9.96875 7.9018V4.87502C9.96875 4.27234 9.58036 3.53127 9.08929 3.18752ZM7.67857 6.12502C7.67857 6.29913 7.54018 6.43752 7.36607 6.43752C7.19196 6.43752 7.05357 6.29913 7.05357 6.12502V6.04466L5.83929 7.25895C5.77232 7.32591 5.68304 7.35716 5.58929 7.34823C5.5 7.33931 5.41518 7.28573 5.36607 7.20984L4.91071 6.53127L3.84821 7.59377C3.78571 7.65627 3.70982 7.68306 3.62946 7.68306C3.54911 7.68306 3.46875 7.65181 3.41071 7.59377C3.29018 7.47323 3.29018 7.27681 3.41071 7.15181L4.74107 5.82145C4.80804 5.75448 4.89732 5.72323 4.99107 5.73216C5.08482 5.74109 5.16964 5.7902 5.21875 5.87056L5.67411 6.54913L6.61607 5.60716H6.53571C6.36161 5.60716 6.22321 5.46877 6.22321 5.29466C6.22321 5.12056 6.36161 4.98216 6.53571 4.98216H7.36607C7.40625 4.98216 7.44643 4.99109 7.48661 5.00448C7.5625 5.03573 7.625 5.09823 7.65625 5.17413C7.67411 5.21431 7.67857 5.25448 7.67857 5.29466V6.12502Z" fill="#F85626"/>
</svg>
