<svg width="52" height="17" viewBox="0 0 52 17" fill="none" xmlns="http://www.w3.org/2000/svg">
<path d="M40.705 3.54078C40.9201 3.36871 41.0276 3.28267 41.1352 3.19663C42.6301 1.92758 44.5444 2.06739 45.8242 3.57305C45.9533 3.72361 46.0178 3.73437 46.1468 3.60531C46.2329 3.50852 46.3297 3.43324 46.4157 3.33645C47.4159 2.35777 48.7387 2.06739 49.9755 2.61588C51.2768 3.19664 51.9759 4.21833 51.9866 5.6487C52.0081 8.73529 51.9974 11.8111 51.9974 14.8977C51.9974 15.9947 51.3198 16.683 50.2336 16.683C49.8034 16.683 49.3732 16.6507 48.9431 16.6938C48.5021 16.7368 48.3731 16.597 48.3731 16.1345C48.3946 13.1232 48.3838 10.1119 48.3838 7.10058C48.3838 6.97153 48.3838 6.85322 48.3838 6.72417C48.3731 6.02511 48.0934 5.73474 47.4267 5.70247C46.8244 5.67021 46.405 6.03587 46.3404 6.64889C46.3297 6.7887 46.3404 6.93926 46.3404 7.07907C46.3404 9.6817 46.3404 12.2736 46.3404 14.8762C46.3404 16.0162 45.6844 16.683 44.5444 16.6722C43.9636 16.6615 43.1786 16.9304 42.8452 16.5539C42.5548 16.2313 42.7484 15.4677 42.7484 14.8977C42.7484 12.2306 42.7484 9.55265 42.7484 6.88549C42.7484 5.93908 42.1354 5.45512 41.3395 5.77776C40.8448 5.98209 40.6835 6.38002 40.6835 6.89624C40.6942 9.39133 40.6835 11.8757 40.6835 14.3707C40.6835 14.5643 40.6835 14.7687 40.6835 14.9622C40.6512 16.0055 39.9844 16.6615 38.952 16.6722C38.5218 16.683 38.0916 16.64 37.6614 16.683C37.199 16.726 37.0591 16.597 37.0699 16.1022C37.0914 11.8757 37.0807 7.64907 37.0807 3.41173C37.0807 3.2289 37.0914 3.05682 37.0807 2.87399C37.0592 2.63739 37.1559 2.56211 37.3925 2.56211C38.382 2.57286 39.3606 2.57286 40.3501 2.56211C40.5974 2.56211 40.7157 2.62664 40.6942 2.8955C40.6727 3.08909 40.6942 3.26116 40.705 3.54078Z" fill="white"/>
<path d="M17.9048 9.3699C17.9048 10.8433 17.9048 12.3059 17.9048 13.7793C17.894 15.6937 16.8938 16.6831 14.9795 16.6938C14.1406 16.6938 13.291 16.7046 12.4522 16.6938C10.7529 16.6723 9.50538 15.5431 9.41934 13.8438C9.35481 12.6286 9.34406 11.4025 9.40859 10.1873C9.49463 8.445 10.8282 7.21897 12.592 7.19746C13.0544 7.1867 13.5276 7.19746 13.9901 7.19746C14.4418 7.1867 14.6138 6.92859 14.6031 6.4984C14.6031 6.06822 14.4095 5.87463 13.9793 5.89614C13.4954 5.9069 13.0114 5.9069 12.5274 5.89614C11.3444 5.87463 10.6884 5.22935 10.6991 4.06785C10.6991 3.59464 10.4841 2.96012 10.7959 2.6805C11.0648 2.44389 11.6778 2.59446 12.1403 2.59446C13.3448 2.5837 14.5386 2.59446 15.7431 2.59446C17.0229 2.59446 17.894 3.46559 17.9048 4.75615C17.9155 6.28331 17.9048 7.83198 17.9048 9.3699ZM14.6138 11.8112C14.6138 11.6284 14.6138 11.4563 14.6138 11.2735C14.6138 10.1765 14.6138 10.1765 13.5169 10.2195C12.9684 10.241 12.6673 10.5207 12.6565 11.0907C12.6457 11.5423 12.6457 11.9833 12.6565 12.435C12.6673 13.2093 13.0114 13.4137 14.1299 13.4459C14.958 13.4674 14.5386 12.8867 14.6138 12.564C14.6569 12.3274 14.6031 12.0586 14.6138 11.8112Z" fill="white"/>
<path d="M27.4765 8.1976C27.4765 9.84307 27.498 11.4993 27.4658 13.1448C27.4442 14.4138 27.1431 15.5646 25.9171 16.2421C25.4224 16.511 24.8846 16.6615 24.3254 16.6723C23.0886 16.6938 21.8518 16.6723 20.615 16.6938C20.3139 16.6938 20.2494 16.5863 20.2601 16.3174C20.2816 15.8657 20.2494 15.4247 20.2709 14.973C20.2924 14.1127 20.9484 13.4566 21.8088 13.4244C22.368 13.4029 22.9165 13.4136 23.4758 13.4244C23.9275 13.4244 24.1748 13.2415 24.1748 12.7576C24.1748 12.2629 23.9382 12.0908 23.4865 12.08C22.7337 12.0585 21.9809 12.1661 21.2388 11.951C19.959 11.5746 19.0233 10.5099 18.9911 9.18703C18.9265 7.08987 18.9696 4.99271 18.9588 2.89555C18.9588 2.65895 19.0341 2.58367 19.2707 2.59442C20.1526 2.60518 21.0237 2.61593 21.9056 2.59442C22.2928 2.58367 22.239 2.79876 22.239 3.03536C22.239 4.6163 22.239 6.18648 22.239 7.76742C22.239 8.45572 22.5616 8.82137 23.1639 8.84288C23.8737 8.86439 24.1856 8.57402 24.1856 7.85345C24.1856 6.26176 24.1963 4.65932 24.1748 3.06763C24.1748 2.69121 24.2716 2.58367 24.648 2.59442C25.4331 2.62668 26.229 2.63744 27.0141 2.59442C27.4442 2.57291 27.5088 2.73423 27.498 3.11064C27.4658 4.79913 27.4765 6.49837 27.4765 8.1976Z" fill="white"/>
<path d="M0.0736213 10.6389C0.0736213 8.88587 0.0736213 7.12211 0.0736213 5.36909C0.0736213 3.64835 1.12758 2.57288 2.85908 2.59439C3.98832 2.60514 5.11756 2.46533 6.23605 2.68043C7.66642 2.96005 8.56981 4.06778 8.58057 5.54117C8.59132 7.1006 8.58057 8.66002 8.58057 10.2195C8.58057 12.1768 7.42982 13.3706 5.47247 13.4243C4.88096 13.4459 4.28945 13.4351 3.69795 13.4243C3.42908 13.4136 3.31078 13.4996 3.32153 13.79C3.34304 14.2202 3.33229 14.6504 3.32153 15.0806C3.30002 16.0055 2.64399 16.6723 1.72984 16.683C1.19211 16.6938 0.514563 16.9089 0.170413 16.597C-0.152227 16.3066 0.084376 15.6183 0.0736213 15.1021C0.0628666 13.6179 0.0736213 12.123 0.0736213 10.6389ZM3.32153 8.00399C3.32153 8.34814 3.32153 8.68153 3.32153 9.02568C3.32153 10.241 3.32153 10.241 4.53681 10.1334C5.06379 10.0904 5.31115 9.83228 5.3219 9.3053C5.33266 8.70304 5.30039 8.09003 5.33266 7.48777C5.39718 5.74551 5.07454 5.91758 3.65493 5.90683C3.39682 5.90683 3.31078 5.98211 3.31078 6.24022C3.33229 6.82097 3.32153 7.41248 3.32153 8.00399Z" fill="white"/>
<path d="M30.5198 10.6604C30.5198 9.23006 30.5091 7.78893 30.5306 6.35856C30.5306 6.02516 30.4553 5.88535 30.0896 5.89611C29.6057 5.91762 28.9604 6.05743 28.6915 5.82083C28.3581 5.50894 28.6162 4.84215 28.5732 4.32592C28.5732 4.29366 28.5732 4.25064 28.5732 4.21838C28.5732 3.71291 28.4119 3.1214 28.627 2.74499C28.8421 2.36857 29.4981 2.60518 29.9606 2.48688C30.8747 2.25027 31.563 1.72329 32.1223 0.991975C32.5094 0.49726 32.9934 0.142356 33.6172 0.0240548C33.9505 -0.0404733 34.1549 0.00254576 34.1334 0.432733C34.1011 1.03499 34.1334 1.64801 34.1226 2.26103C34.1119 2.51914 34.2087 2.60518 34.4668 2.59442C34.897 2.58367 35.3271 2.60518 35.7573 2.58367C36.0154 2.57291 36.1015 2.6697 36.0907 2.92782C36.08 3.8097 36.08 4.68083 36.0907 5.56271C36.0907 5.81007 36.0262 5.93913 35.7573 5.90686C35.7036 5.89611 35.6498 5.90686 35.596 5.90686C35.1228 5.94988 34.4668 5.69177 34.2194 6.01441C33.9828 6.31554 34.1334 6.93931 34.1334 7.42327C34.1334 10.3485 34.1226 13.2631 34.1441 16.1883C34.1441 16.597 34.0366 16.7261 33.6279 16.6938C33.2407 16.6615 32.8428 16.6938 32.4449 16.683C31.2834 16.64 30.5198 15.8549 30.5198 14.6934C30.5198 13.3491 30.5198 12.0048 30.5198 10.6604Z" fill="white"/>
</svg>
