<svg width="30" height="10" viewBox="0 0 30 10" fill="none" xmlns="http://www.w3.org/2000/svg">
<path d="M23.514 2.14032C23.6375 2.04151 23.6992 1.99211 23.761 1.9427C24.6194 1.21398 25.7186 1.29427 26.4535 2.15885C26.5276 2.24531 26.5647 2.25149 26.6388 2.17738C26.6882 2.1218 26.7438 2.07857 26.7932 2.02299C27.3675 1.46101 28.1271 1.29427 28.8373 1.60922C29.5846 1.94271 29.986 2.52939 29.9922 3.35074C30.0045 5.12314 29.9983 6.88937 29.9983 8.66177C29.9983 9.29168 29.6093 9.68692 28.9855 9.68692C28.7385 9.68692 28.4915 9.66839 28.2445 9.6931C27.9913 9.7178 27.9172 9.63751 27.9172 9.37196C27.9295 7.64279 27.9233 5.91362 27.9233 4.18445C27.9233 4.11034 27.9233 4.04241 27.9233 3.96831C27.9172 3.56689 27.7566 3.40015 27.3737 3.38162C27.0279 3.3631 26.787 3.57307 26.75 3.92508C26.7438 4.00536 26.75 4.09182 26.75 4.1721C26.75 5.6666 26.75 7.15492 26.75 8.64942C26.75 9.30403 26.3733 9.68692 25.7186 9.68074C25.3852 9.67457 24.9343 9.82896 24.7429 9.61281C24.5762 9.42754 24.6873 8.98908 24.6873 8.66177C24.6873 7.13022 24.6873 5.59249 24.6873 4.06094C24.6873 3.51749 24.3353 3.23958 23.8783 3.42485C23.5942 3.54219 23.5016 3.77069 23.5016 4.06712C23.5078 5.49986 23.5016 6.92642 23.5016 8.35916C23.5016 8.47032 23.5016 8.58766 23.5016 8.69882C23.4831 9.29786 23.1002 9.67457 22.5073 9.68074C22.2603 9.68692 22.0133 9.66222 21.7663 9.68692C21.5007 9.71162 21.4204 9.63752 21.4266 9.35344C21.4389 6.92642 21.4328 4.49941 21.4328 2.06622C21.4328 1.96123 21.4389 1.86242 21.4328 1.75744C21.4204 1.62157 21.476 1.57834 21.6119 1.57834C22.18 1.58452 22.742 1.58452 23.3102 1.57834C23.4522 1.57834 23.5201 1.6154 23.5078 1.76979C23.4954 1.88095 23.5078 1.97976 23.514 2.14032Z" fill="#02B9EF"/>
<path d="M10.4217 5.48745C10.4217 6.33351 10.4217 7.17339 10.4217 8.01945C10.4155 9.11871 9.84119 9.68686 8.74193 9.69304C8.26023 9.69304 7.77236 9.69921 7.29066 9.69304C6.31491 9.68069 5.59854 9.03225 5.54914 8.0565C5.51208 7.35866 5.50591 6.65464 5.54296 5.9568C5.59237 4.95635 6.35814 4.25233 7.37094 4.23998C7.63649 4.2338 7.90822 4.23998 8.17377 4.23998C8.43315 4.2338 8.53196 4.08559 8.52578 3.83856C8.52578 3.59154 8.41462 3.48038 8.16759 3.49273C7.88969 3.4989 7.61179 3.4989 7.33389 3.49273C6.65457 3.48038 6.27786 3.10984 6.28403 2.44287C6.28403 2.17115 6.16052 1.80679 6.33961 1.64622C6.494 1.51036 6.84601 1.59682 7.11157 1.59682C7.80323 1.59064 8.48873 1.59682 9.18039 1.59682C9.91529 1.59682 10.4155 2.09704 10.4217 2.83811C10.4279 3.71505 10.4217 4.60434 10.4217 5.48745ZM8.53196 6.88931C8.53196 6.78433 8.53196 6.68552 8.53196 6.58053C8.53196 5.95062 8.53196 5.95062 7.90204 5.97532C7.58709 5.98767 7.41417 6.14824 7.40799 6.47555C7.40182 6.73492 7.40182 6.98812 7.40799 7.2475C7.41417 7.69214 7.61179 7.80948 8.25405 7.82801C8.72957 7.84036 8.48873 7.50687 8.53196 7.3216C8.55666 7.18574 8.52578 7.03135 8.53196 6.88931Z" fill="#06306F"/>
<path d="M15.9179 4.81428C15.9179 5.75915 15.9303 6.71019 15.9117 7.65506C15.8994 8.38378 15.7265 9.04457 15.0225 9.43364C14.7384 9.58803 14.4296 9.67449 14.1085 9.68066C13.3983 9.69301 12.6881 9.68066 11.9779 9.69301C11.805 9.69301 11.7679 9.63126 11.7741 9.47687C11.7864 9.21749 11.7679 8.96429 11.7803 8.70492C11.7926 8.21087 12.1693 7.83415 12.6634 7.81563C12.9845 7.80328 13.2995 7.80945 13.6206 7.81563C13.88 7.81563 14.022 7.71064 14.022 7.43274C14.022 7.14866 13.8861 7.04985 13.6268 7.04368C13.1945 7.03132 12.7622 7.09308 12.3361 6.96957C11.6012 6.75342 11.0639 6.14204 11.0454 5.38244C11.0083 4.17819 11.033 2.97395 11.0268 1.76971C11.0268 1.63384 11.0701 1.59061 11.2059 1.59679C11.7123 1.60296 12.2126 1.60914 12.719 1.59679C12.9413 1.59061 12.9104 1.71413 12.9104 1.84999C12.9104 2.7578 12.9104 3.65944 12.9104 4.56726C12.9104 4.9625 13.0957 5.17247 13.4415 5.18482C13.8491 5.19717 14.0282 5.03043 14.0282 4.61666C14.0282 3.70267 14.0344 2.78251 14.022 1.86852C14.022 1.65237 14.0776 1.59061 14.2937 1.59679C14.7446 1.61532 15.2015 1.62149 15.6524 1.59679C15.8994 1.58444 15.9364 1.67707 15.9303 1.89322C15.9117 2.86279 15.9179 3.83853 15.9179 4.81428Z" fill="#06306F"/>
<path d="M0.182412 6.21613C0.182412 5.20951 0.182412 4.19671 0.182412 3.19008C0.182412 2.20198 0.787622 1.58442 1.78189 1.59678C2.43033 1.60295 3.07877 1.52267 3.72104 1.64618C4.54239 1.80675 5.06114 2.44283 5.06732 3.28889C5.07349 4.18436 5.06732 5.07982 5.06732 5.97528C5.06732 7.09924 4.40653 7.78474 3.28257 7.81561C2.94291 7.82796 2.60325 7.82179 2.26359 7.81561C2.1092 7.80944 2.04127 7.85884 2.04745 8.02559C2.0598 8.27261 2.05362 8.51963 2.04745 8.76666C2.03509 9.29776 1.65838 9.68065 1.13346 9.68682C0.824675 9.693 0.435612 9.81651 0.237992 9.63742C0.0527241 9.47068 0.188588 9.07544 0.182412 8.77901C0.176236 7.92677 0.182412 7.06837 0.182412 6.21613ZM2.04745 4.70311C2.04745 4.90073 2.04745 5.09217 2.04745 5.28979C2.04745 5.98763 2.04745 5.98763 2.74529 5.92588C3.04789 5.90118 3.18993 5.75296 3.19611 5.45036C3.20229 5.10452 3.18376 4.75251 3.20229 4.40668C3.23934 3.40623 3.05407 3.50504 2.23889 3.49886C2.09068 3.49886 2.04127 3.54209 2.04127 3.69031C2.05362 4.02379 2.04745 4.36345 2.04745 4.70311Z" fill="#06306F"/>
<path d="M17.6658 6.22855C17.6658 5.40719 17.6596 4.57966 17.672 3.7583C17.672 3.56686 17.6287 3.48658 17.4188 3.49275C17.1409 3.5051 16.7703 3.58539 16.6159 3.44952C16.4245 3.27043 16.5727 2.88754 16.548 2.59111C16.548 2.57259 16.548 2.54788 16.548 2.52936C16.548 2.2391 16.4554 1.89944 16.5789 1.6833C16.7024 1.46715 17.0791 1.60302 17.3446 1.53508C17.8696 1.39922 18.2648 1.09661 18.5859 0.676673C18.8083 0.392595 19.0862 0.1888 19.4444 0.120869C19.6358 0.0838149 19.7531 0.108518 19.7408 0.355542C19.7223 0.701376 19.7408 1.05339 19.7346 1.4054C19.7284 1.55361 19.784 1.60302 19.9322 1.59684C20.1793 1.59066 20.4263 1.60302 20.6733 1.59066C20.8215 1.58449 20.8709 1.64007 20.8647 1.78828C20.8586 2.29468 20.8586 2.79491 20.8647 3.30131C20.8647 3.44335 20.8277 3.51745 20.6733 3.49893C20.6424 3.49275 20.6115 3.49893 20.5807 3.49893C20.3089 3.52363 19.9322 3.37541 19.7902 3.56068C19.6543 3.7336 19.7408 4.09179 19.7408 4.36969C19.7408 6.04945 19.7346 7.72304 19.747 9.40281C19.747 9.63748 19.6852 9.71159 19.4505 9.69306C19.2282 9.67454 18.9997 9.69306 18.7712 9.68689C18.1043 9.66219 17.6658 9.21137 17.6658 8.5444C17.6658 7.77245 17.6658 7.0005 17.6658 6.22855Z" fill="#02B9EF"/>
</svg>
