<svg width="16" height="16" viewBox="0 0 16 16" fill="none" xmlns="http://www.w3.org/2000/svg">
<rect width="16" height="16" rx="6" fill="#FFA2C0"/>
<path d="M8.3125 9.6333H8.58333C8.85417 9.6333 9.07917 9.39163 9.07917 9.09997C9.07917 8.73747 8.95 8.66663 8.7375 8.59163L8.31667 8.4458V9.6333H8.3125Z" fill="white"/>
<path d="M7.9872 3.79163C5.6872 3.79997 3.8247 5.6708 3.83304 7.9708C3.84137 10.2708 5.7122 12.1333 8.0122 12.125C10.3122 12.1166 12.1747 10.2458 12.1664 7.9458C12.158 5.6458 10.2872 3.78747 7.9872 3.79163ZM8.94137 7.99997C9.26637 8.11247 9.70387 8.35413 9.70387 9.09997C9.70387 9.74163 9.1997 10.2583 8.58304 10.2583H8.3122V10.5C8.3122 10.6708 8.17054 10.8125 7.9997 10.8125C7.82887 10.8125 7.6872 10.6708 7.6872 10.5V10.2583H7.5372C6.85387 10.2583 6.2997 9.6833 6.2997 8.97497C6.2997 8.80413 6.44137 8.66247 6.6122 8.66247C6.78304 8.66247 6.9247 8.80413 6.9247 8.97497C6.9247 9.33747 7.1997 9.6333 7.5372 9.6333H7.6872V8.22497L7.05804 7.99997C6.73304 7.88747 6.29554 7.6458 6.29554 6.89997C6.29554 6.2583 6.7997 5.74163 7.41637 5.74163H7.6872V5.49997C7.6872 5.32913 7.82887 5.18747 7.9997 5.18747C8.17054 5.18747 8.3122 5.32913 8.3122 5.49997V5.74163H8.4622C9.14554 5.74163 9.6997 6.31663 9.6997 7.02497C9.6997 7.1958 9.55804 7.33747 9.3872 7.33747C9.21637 7.33747 9.0747 7.1958 9.0747 7.02497C9.0747 6.66247 8.7997 6.36663 8.4622 6.36663H8.3122V7.77497L8.94137 7.99997Z" fill="white"/>
<path d="M6.9248 6.9042C6.9248 7.2667 7.05397 7.33753 7.26647 7.41253L7.6873 7.55837V6.3667H7.41647C7.14564 6.3667 6.9248 6.60837 6.9248 6.9042Z" fill="white"/>
</svg>
