<svg width="94" height="19" viewBox="0 0 94 19" fill="none" xmlns="http://www.w3.org/2000/svg">
<path fill-rule="evenodd" clip-rule="evenodd" d="M22.4055 7.17801C22.2572 7.7066 21.9699 8.09456 21.5435 8.34227C21.1166 8.58993 20.5178 8.71402 19.7455 8.71402H17.2918L18.1532 5.64223H20.6069C21.3786 5.64223 21.9084 5.76608 22.1963 6.01375C22.4836 6.2617 22.5537 6.6497 22.4055 7.17801ZM24.9465 7.11181C25.2585 6.00029 25.1292 5.1469 24.5586 4.55241C23.988 3.95791 22.9882 3.66083 21.5602 3.66083H16.0828L12.7861 15.4181H15.4472L16.7764 10.6787H18.5215C18.9128 10.6787 19.2209 10.7394 19.4462 10.8605C19.6719 10.9818 19.8041 11.1966 19.8449 11.5044L20.3196 15.4181H23.1709L22.7083 11.7689C22.614 10.9541 22.2239 10.4752 21.5383 10.3322C22.4124 10.0903 23.1444 9.688 23.734 9.12648C24.323 8.56524 24.7276 7.89385 24.9465 7.11181Z" fill="white"/>
<path fill-rule="evenodd" clip-rule="evenodd" d="M31.4142 11.2073C31.1918 11.9997 30.8493 12.6055 30.3867 13.0237C29.9236 13.4421 29.3696 13.6511 28.7249 13.6511C28.0675 13.6511 27.6216 13.4449 27.3865 13.0319C27.1503 12.6192 27.1423 12.0222 27.3618 11.2402C27.5808 10.4588 27.9302 9.84782 28.4111 9.40707C28.8915 8.96718 29.4541 8.74672 30.0994 8.74672C30.7441 8.74672 31.1808 8.95899 31.4072 9.38267C31.6337 9.80636 31.6365 10.4145 31.4142 11.2073ZM32.5806 7.04591L32.2474 8.2349C32.1031 7.80544 31.8244 7.46438 31.4118 7.21122C30.9987 6.95806 30.4867 6.83118 29.8764 6.83118C29.1277 6.83118 28.4076 7.01573 27.717 7.3845C27.0263 7.75351 26.4223 8.27361 25.9057 8.94496C25.3891 9.61659 25.0105 10.3816 24.7697 11.2402C24.5289 12.0991 24.4806 12.8559 24.6254 13.5108C24.7703 14.166 25.084 14.6695 25.5672 15.0218C26.05 15.3744 26.6717 15.5501 27.4319 15.5501C28.0422 15.5501 28.6238 15.4291 29.1754 15.1869C29.727 14.945 30.1953 14.6089 30.5809 14.1797L30.2333 15.4181H32.8076L35.155 7.04591H32.5806Z" fill="white"/>
<path fill-rule="evenodd" clip-rule="evenodd" d="M44.4114 7.0459H36.9296L36.4067 8.91202H40.7607L35.004 13.6676L34.5127 15.4181H42.2364L42.7598 13.5522H38.095L43.939 8.73022L44.4114 7.0459Z" fill="white"/>
<path fill-rule="evenodd" clip-rule="evenodd" d="M50.9985 11.1908C50.7669 12.0162 50.4238 12.6332 49.9699 13.0404C49.5159 13.4476 48.9666 13.6511 48.3219 13.6511C46.9737 13.6511 46.5301 12.8314 46.9899 11.1908C47.2186 10.3761 47.5633 9.76239 48.0242 9.3497C48.4856 8.93672 49.0442 8.73023 49.701 8.73023C50.3457 8.73023 50.7807 8.93672 51.0048 9.3497C51.2289 9.76239 51.2272 10.3761 50.9985 11.1908ZM52.5046 7.35948C51.9121 7.00744 51.1553 6.83118 50.2336 6.83118C49.3004 6.83118 48.4362 7.00744 47.6404 7.35948C46.8445 7.71205 46.167 8.21841 45.6079 8.87877C45.0481 9.53941 44.6448 10.3099 44.3977 11.1908C44.1506 12.0717 44.1219 12.8419 44.3115 13.5026C44.5006 14.1632 44.8936 14.6696 45.4924 15.0218C46.0906 15.3744 46.8559 15.5501 47.7892 15.5501C48.7108 15.5501 49.5665 15.3744 50.3566 15.0218C51.1456 14.6696 51.8208 14.1632 52.3804 13.5026C52.9395 12.8419 53.343 12.0717 53.5901 11.1908C53.8371 10.3099 53.8659 9.53941 53.6768 8.87877C53.4872 8.21841 53.0964 7.71205 52.5046 7.35948Z" fill="white"/>
<path fill-rule="evenodd" clip-rule="evenodd" d="M79.431 11.2073C79.2086 11.9997 78.8661 12.6055 78.4035 13.0237C77.9409 13.4421 77.3859 13.6511 76.7411 13.6511C76.0849 13.6511 75.6384 13.4449 75.4034 13.0319C75.1672 12.6192 75.1592 12.0222 75.3787 11.2402C75.5976 10.4588 75.947 9.84782 76.428 9.40707C76.9083 8.96718 77.4709 8.74672 78.1162 8.74672C78.7609 8.74672 79.1977 8.95899 79.4241 9.38267C79.6505 9.80636 79.6534 10.4145 79.431 11.2073ZM80.5975 7.04591L80.2642 8.2349C80.1199 7.80544 79.8413 7.46438 79.4287 7.21122C79.0155 6.95806 78.5035 6.83118 77.8932 6.83118C77.1445 6.83118 76.4245 7.01573 75.7338 7.3845C75.0431 7.75351 74.4391 8.27361 73.9226 8.94496C73.406 9.61659 73.0273 10.3816 72.7865 11.2402C72.5458 12.0991 72.498 12.8559 72.6423 13.5108C72.787 14.166 73.1003 14.6695 73.5841 15.0218C74.0668 15.3744 74.6886 15.5501 75.4488 15.5501C76.059 15.5501 76.6406 15.4291 77.1922 15.1869C77.7439 14.945 78.2122 14.6089 78.5977 14.1797L78.2501 15.4181H80.8244L83.1719 7.04591H80.5975Z" fill="white"/>
<path fill-rule="evenodd" clip-rule="evenodd" d="M61.6833 9.29174L62.3395 7.01292C62.1165 6.90281 61.8211 6.84766 61.4528 6.84766C60.865 6.84766 60.2989 6.98795 59.7536 7.26883C59.2853 7.50981 58.8865 7.84807 58.5498 8.2719L58.8911 7.04472L58.1458 7.0459H56.3176L53.9521 15.418H56.5621L57.7889 11.0422C57.9677 10.4038 58.2883 9.90571 58.7521 9.54793C59.2146 9.19015 59.7921 9.0111 60.4834 9.0111C60.9097 9.0111 61.3091 9.10472 61.6833 9.29174Z" fill="white"/>
<path fill-rule="evenodd" clip-rule="evenodd" d="M68.9483 11.2401C68.7288 12.0222 68.3886 12.6191 67.9277 13.0318C67.4658 13.4448 66.9129 13.651 66.2682 13.651C65.6229 13.651 65.1833 13.442 64.9494 13.0236C64.715 12.6054 64.7092 11.9999 64.9316 11.2071C65.154 10.4144 65.4999 9.80621 65.97 9.38252C66.44 8.95884 66.998 8.74657 67.6433 8.74657C68.2765 8.74657 68.7069 8.96708 68.9351 9.40726C69.1626 9.84767 69.1672 10.4589 68.9483 11.2401ZM70.7722 7.38435C70.2878 7.01558 69.6712 6.83136 68.923 6.83136C68.2662 6.83136 67.641 6.9744 67.0491 7.26054C66.4556 7.5472 65.9746 7.93739 65.6056 8.433L65.614 8.37808L66.0524 7.04462H65.5479V7.04581H63.5048L62.856 9.36097C62.8486 9.38788 62.8423 9.41299 62.8347 9.44019L60.1587 18.9849H62.7681L64.1156 14.1799C64.2477 14.6088 64.5225 14.9448 64.9385 15.1868C65.3545 15.4289 65.8677 15.55 66.4785 15.55C67.2388 15.55 67.9616 15.3743 68.6483 15.0217C69.3345 14.6697 69.9309 14.1658 70.4366 13.5107C70.9428 12.8561 71.3164 12.099 71.5571 11.2401C71.7979 10.3815 71.8479 9.61649 71.7083 8.94486C71.5686 8.27346 71.256 7.75341 70.7722 7.38435Z" fill="white"/>
<path fill-rule="evenodd" clip-rule="evenodd" d="M93.9772 7.04822L93.9789 7.0459H92.3983C92.3478 7.0459 92.3032 7.04727 92.257 7.04822H91.4367L91.0172 7.60675C90.9836 7.64883 90.95 7.69119 90.9138 7.74032L90.8681 7.805L87.5344 12.2422L86.8431 7.0459H84.1124L85.4953 14.9419L82.4414 18.985H82.5285H84.0877H85.162L85.9021 17.983C85.9239 17.9532 85.9426 17.9287 85.9659 17.8972L86.8296 16.727L86.8543 16.6935L90.7187 11.4581L93.9746 7.05168L93.9789 7.04822H93.9772Z" fill="white"/>
<path fill-rule="evenodd" clip-rule="evenodd" d="M6.07998 5.00774L5.29883 7.75507L9.76859 4.9923L6.84551 15.4155L9.8139 15.4181L14.1321 0.0228271L6.07998 5.00774Z" fill="#3395FF"/>
<path fill-rule="evenodd" clip-rule="evenodd" d="M1.26893 11.0363L0.0400391 15.4181H6.12456C6.12456 15.4181 8.61328 6.5064 8.61397 6.50385C8.61164 6.50527 1.26893 11.0363 1.26893 11.0363Z" fill="#072654"/>
</svg>
