<svg width="14" height="14" viewBox="0 0 14 14" fill="none" xmlns="http://www.w3.org/2000/svg">
<path d="M9.44449 1.16669H4.55616C2.43283 1.16669 1.16699 2.43252 1.16699 4.55585V9.43835C1.16699 11.5675 2.43283 12.8334 4.55616 12.8334H9.43866C11.562 12.8334 12.8278 11.5675 12.8278 9.44419V4.55585C12.8337 2.43252 11.5678 1.16669 9.44449 1.16669ZM4.94116 6.40502C5.11033 6.23585 5.39033 6.23585 5.55949 6.40502L6.56283 7.40835V3.79752C6.56283 3.55835 6.76116 3.36002 7.00033 3.36002C7.23949 3.36002 7.43783 3.55835 7.43783 3.79752V7.40835L8.44116 6.40502C8.61033 6.23585 8.89033 6.23585 9.05949 6.40502C9.22866 6.57419 9.22866 6.85419 9.05949 7.02335L7.30949 8.77335C7.26866 8.81419 7.22199 8.84335 7.16949 8.86669C7.11699 8.89002 7.05866 8.90169 7.00033 8.90169C6.94199 8.90169 6.88949 8.89002 6.83116 8.86669C6.77866 8.84335 6.73199 8.81419 6.69116 8.77335L4.94116 7.02335C4.77199 6.85419 4.77199 6.58002 4.94116 6.40502ZM10.6403 10.045C9.46782 10.4359 8.23699 10.6342 7.00033 10.6342C5.76366 10.6342 4.53283 10.4359 3.36033 10.045C3.13283 9.96919 3.01033 9.71835 3.08616 9.49085C3.16199 9.26335 3.40699 9.13502 3.64033 9.21669C5.81033 9.94002 8.19616 9.94002 10.3662 9.21669C10.5937 9.14085 10.8445 9.26335 10.9203 9.49085C10.9903 9.72419 10.8678 9.96919 10.6403 10.045Z" fill="#7B61FF"/>
</svg>
