<svg width="16" height="16" viewBox="0 0 16 16" fill="none" xmlns="http://www.w3.org/2000/svg">
<path d="M13 2.44665C13 2.43998 13 2.43331 12.9867 2.42665C12.84 2.23998 12.6467 2.13998 12.42 2.13998C12.0667 2.13998 11.64 2.37331 11.18 2.86665C10.6333 3.45331 9.79333 3.40665 9.31333 2.76665L8.64 1.87331C8.37333 1.51331 8.02 1.33331 7.66667 1.33331C7.31333 1.33331 6.96 1.51331 6.69333 1.87331L6.01333 2.77331C5.54 3.40665 4.70667 3.45331 4.16 2.87331L4.15333 2.86665C3.4 2.05998 2.72667 1.93998 2.34667 2.42665C2.33333 2.43331 2.33333 2.43998 2.33333 2.44665C2.09333 2.95998 2 3.67998 2 4.69331V11.3066C2 12.32 2.09333 13.04 2.33333 13.5533C2.33333 13.56 2.34 13.5733 2.34667 13.58C2.73333 14.06 3.4 13.94 4.15333 13.1333L4.16 13.1266C4.70667 12.5466 5.54 12.5933 6.01333 13.2266L6.69333 14.1266C6.96 14.4866 7.31333 14.6666 7.66667 14.6666C8.02 14.6666 8.37333 14.4866 8.64 14.1266L9.31333 13.2333C9.79333 12.5933 10.6333 12.5466 11.18 13.1333C11.64 13.6266 12.0667 13.86 12.42 13.86C12.6467 13.86 12.84 13.7666 12.9867 13.58C12.9933 13.5733 13 13.56 13 13.5533C13.24 13.04 13.3333 12.32 13.3333 11.3066V4.69331C13.3333 3.67998 13.24 2.95998 13 2.44665ZM9.33333 9.66665H5.33333C5.06 9.66665 4.83333 9.43998 4.83333 9.16665C4.83333 8.89331 5.06 8.66665 5.33333 8.66665H9.33333C9.60667 8.66665 9.83333 8.89331 9.83333 9.16665C9.83333 9.43998 9.60667 9.66665 9.33333 9.66665ZM10.6667 7.33331H5.33333C5.06 7.33331 4.83333 7.10665 4.83333 6.83331C4.83333 6.55998 5.06 6.33331 5.33333 6.33331H10.6667C10.94 6.33331 11.1667 6.55998 11.1667 6.83331C11.1667 7.10665 10.94 7.33331 10.6667 7.33331Z" fill="#1AD492"/>
</svg>
