<svg width="16" height="16" viewBox="0 0 16 16" fill="none" xmlns="http://www.w3.org/2000/svg">
<path d="M16 8C16 9.43903 15.6203 10.7892 14.9548 11.9559C14.9058 12.0421 14.8509 12.1342 14.7905 12.2312C13.9425 13.5895 12.6981 14.6753 11.2189 15.326C10.9753 15.4331 10.7252 15.5288 10.4696 15.6114C10.3187 15.6603 10.1659 15.7051 10.0114 15.7449C9.87463 15.7805 9.73619 15.8125 9.59675 15.8406C9.08081 15.9452 8.54694 16 8 16C6.41372 16 4.93584 15.5386 3.69241 14.7422C2.87838 14.2214 2.16522 13.5569 1.58791 12.785C0.590688 11.4504 0 9.79397 0 8C0 3.74956 3.31494 0.273313 7.50041 0.0153437C7.60425 0.0088125 7.70841 0.0045625 7.81322 0.00228125H7.81453C7.87625 0.00065625 7.93797 0 8 0C12.4183 0 16 3.58172 16 8Z" fill="#5C5560"/>
<path d="M14.9546 11.9559C14.9056 12.0421 14.8507 12.1342 14.7903 12.2311C13.9423 13.5895 12.6979 14.6752 11.2187 15.326C10.9751 15.4331 10.725 15.5287 10.4694 15.6113C10.3185 15.6603 10.1657 15.7051 10.0112 15.7449L11.0166 1.84583L12.2666 2.93939L13.6103 2.97073L14.9546 11.9559Z" fill="#3E8E33"/>
<path d="M10.4532 2.02875C10.1123 1.14059 9.57158 0.348437 8.6847 0.489812C8.48127 0.220094 8.20111 0.0255 7.81448 0.0023125H7.81317C7.78773 0.00065625 7.76195 0 7.73548 0C7.65645 0 7.57811 0.00521875 7.50039 0.0153437C6.12177 0.195906 4.99295 1.94253 4.56914 3.93894L2.64195 4.56456L1.58789 12.785C2.1652 13.5569 2.87833 14.2214 3.69239 14.7422L9.5967 15.8406C9.89386 15.7805 10.1851 15.7038 10.4695 15.6114L11.0168 1.84584L10.4532 2.02875ZM5.18008 3.74075C5.18008 3.74075 5.45436 2.87706 5.82923 2.09569C6.20442 1.31462 7.42302 0.189406 8.1107 0.611281C8.13127 0.624031 8.1512 0.637719 8.17014 0.652438C7.38058 1.01684 6.76052 1.86875 6.44442 3.33031L5.18008 3.74075ZM8.64814 2.61484L7.09745 3.11803C7.09745 3.11803 7.3933 1.50887 8.48914 1.11378C8.73142 1.73616 8.64814 2.61484 8.64814 2.61484ZM9.21989 2.42906C9.21989 2.42906 9.21989 1.70122 8.9763 1.04228C9.53827 1.10106 9.82658 1.70284 9.96861 2.18613L9.21989 2.42906Z" fill="#7FC029"/>
<path d="M3.87991 11.2869C4.16081 11.4899 4.44184 11.6961 4.76722 11.8292C4.90719 11.8865 5.05 11.931 5.19994 11.9552C5.46915 11.9986 5.71331 11.9627 5.88459 11.7273C6.06412 11.4805 6.03228 11.2173 5.91287 10.958C5.83078 10.7797 5.69328 10.6427 5.54772 10.5153C5.35969 10.3509 5.16966 10.1887 4.97872 10.0276C4.359 9.50483 4.16713 8.82668 4.27628 8.04943C4.46659 6.69433 5.47425 5.72608 6.83712 5.56008C7.42299 5.48871 7.99774 5.49443 8.56389 5.68561C8.69099 5.72852 8.70364 5.78027 8.66305 5.89718C8.48574 6.40764 8.31402 6.92014 8.1479 7.43436C8.11437 7.53818 8.08674 7.55533 7.98055 7.5118C7.54705 7.33411 7.09871 7.22811 6.62571 7.30739C6.29684 7.36252 6.03268 7.50668 5.94015 7.85633C5.87503 8.10246 5.96131 8.30705 6.13634 8.47911C6.3785 8.71721 6.66068 8.9058 6.92815 9.11252C7.25134 9.36236 7.55043 9.63574 7.75949 9.99214C8.1319 10.627 8.13596 11.3047 7.94265 11.9857C7.61568 13.1375 6.62643 13.7591 5.43653 13.6089C4.74494 13.5216 4.13444 13.2701 3.60494 12.8161C3.48588 12.714 3.4411 12.6221 3.49982 12.4576C3.62378 12.1106 3.71841 11.753 3.82475 11.3997C3.83647 11.3608 3.83813 11.3176 3.87991 11.2869Z" fill="#FDFEFD"/>
</svg>
