<svg width="58" height="25" viewBox="0 0 58 25" fill="none" xmlns="http://www.w3.org/2000/svg">
<path fill-rule="evenodd" clip-rule="evenodd" d="M31.3632 3.33596L27.3241 4.22336V0.870966L31.3632 0V3.33596ZM39.7632 5.19293C38.1862 5.19293 37.1724 5.94887 36.6092 6.47473L36.4 5.45587H32.8598V24.6171L36.8828 23.7462L36.8989 19.0955C37.4782 19.5228 38.331 20.1308 39.7471 20.1308C42.6276 20.1308 45.2506 17.7644 45.2506 12.5551C45.2345 7.7894 42.5793 5.19293 39.7632 5.19293ZM38.7977 16.5155C37.8483 16.5155 37.2851 16.1704 36.8989 15.7431L36.8828 9.64637C37.3012 9.1698 37.8805 8.84113 38.7977 8.84113C40.2621 8.84113 41.2759 10.5173 41.2759 12.6701C41.2759 14.8722 40.2782 16.5155 38.7977 16.5155ZM57.931 12.7194C57.931 8.51247 55.9356 5.19293 52.1218 5.19293C48.292 5.19293 45.9747 8.51247 45.9747 12.6865C45.9747 17.633 48.7103 20.1308 52.6368 20.1308C54.5517 20.1308 56 19.6871 57.0943 19.0627V15.776C56 16.3347 54.7448 16.6798 53.1517 16.6798C51.5908 16.6798 50.2069 16.1211 50.0299 14.182H57.8988C57.8988 14.0914 57.9046 13.8856 57.9113 13.6486V13.6485L57.9113 13.6482V13.6482V13.6481L57.9113 13.6479C57.9204 13.3259 57.931 12.9464 57.931 12.7194ZM49.9816 11.1582C49.9816 9.30126 51.092 8.5289 52.1057 8.5289C53.0874 8.5289 54.1333 9.30126 54.1333 11.1582H49.9816ZM27.3241 5.4723H31.3632V19.8515H27.3241V5.4723ZM22.7379 5.4723L22.9954 6.68837C23.9448 4.91357 25.8276 5.2751 26.3425 5.4723V9.25197C25.8437 9.0712 24.2345 8.84113 23.2851 10.1065V19.8515H19.2621V5.4723H22.7379ZM14.9494 1.90627L11.023 2.7608L11.0069 15.9239C11.0069 18.356 12.7931 20.1473 15.1747 20.1473C16.4943 20.1473 17.4598 19.9008 17.9908 19.605V16.269C17.4759 16.4826 14.9333 17.2386 14.9333 14.8064V8.9726H17.9908V5.4723H14.9333L14.9494 1.90627ZM5.43908 8.75897C4.58621 8.75897 4.07126 9.00547 4.07126 9.64637C4.07126 10.3461 4.95749 10.6539 6.05695 11.0358C7.84933 11.6584 10.2084 12.4778 10.2184 15.5131C10.2184 18.4546 7.91724 20.1473 4.57011 20.1473C3.18621 20.1473 1.67356 19.8679 0.177011 19.2106V15.2994C1.52874 16.0554 3.23448 16.6141 4.57011 16.6141C5.47126 16.6141 6.11494 16.3676 6.11494 15.6117C6.11494 14.8365 5.15426 14.4823 3.99445 14.0545C2.22814 13.4031 0 12.5814 0 9.84357C0 6.93487 2.17241 5.19293 5.43908 5.19293C6.77471 5.19293 8.09425 5.40657 9.42988 5.94887V9.8107C8.2069 9.13693 6.66207 8.75897 5.43908 8.75897Z" fill="#6772E5"/>
</svg>
