<svg width="20" height="20" viewBox="0 0 20 20" fill="none" xmlns="http://www.w3.org/2000/svg">
<path d="M15.5109 0H4.48909C2.00983 0 0 2.00983 0 4.48909V15.5109C0 17.9902 2.00983 20 4.48909 20H15.5109C17.9902 20 20 17.9902 20 15.5109V4.48909C20 2.00983 17.9902 0 15.5109 0Z" fill="#6772E5"/>
<path fill-rule="evenodd" clip-rule="evenodd" d="M9.21355 7.75894C9.21355 7.28094 9.60843 7.06618 10.2458 7.06618C11.3019 7.08902 12.3383 7.35701 13.2731 7.849V5.01561C12.3113 4.63844 11.2858 4.45026 10.2527 4.4614C7.78647 4.4614 6.1377 5.74994 6.1377 7.92521C6.1377 11.292 10.7653 10.7447 10.7653 12.1995C10.7653 12.7607 10.2735 12.9408 9.6015 12.9408C8.4177 12.8755 7.26519 12.5364 6.23468 11.9501V14.8528C7.28474 15.3066 8.41604 15.5423 9.55993 15.5456C12.0885 15.5456 13.8343 14.2986 13.8343 12.0818C13.855 8.47249 9.21355 9.12368 9.21355 7.75894Z" fill="white"/>
</svg>
